<svg width="1200" height="700" viewBox="0 0 1200 700" fill="none" xmlns="http://www.w3.org/2000/svg">
  <rect width="1200" height="700" fill="#FFFFFF"/>
  <g stroke="#B8DCF6" stroke-width="2" opacity="0.9">
    <path d="M20 180L210 120L380 210L560 90L760 200L980 110L1180 180"/>
    <path d="M60 420L250 300L430 380L620 280L820 360L1040 260L1180 320"/>
    <path d="M140 620L320 500L520 570L700 450L920 560L1120 470"/>
    <path d="M210 120L250 300L320 500"/>
    <path d="M380 210L430 380L520 570"/>
    <path d="M560 90L620 280L700 450"/>
    <path d="M760 200L820 360L920 560"/>
    <path d="M980 110L1040 260L1120 470"/>
  </g>
  <g fill="#2B9EDA">
    <circle cx="210" cy="120" r="8"/>
    <circle cx="560" cy="90" r="8"/>
    <circle cx="980" cy="110" r="8"/>
    <circle cx="250" cy="300" r="7"/>
    <circle cx="620" cy="280" r="7"/>
    <circle cx="1040" cy="260" r="7"/>
    <circle cx="320" cy="500" r="7"/>
    <circle cx="700" cy="450" r="7"/>
    <circle cx="1120" cy="470" r="7"/>
  </g>
  <g fill="#82D4FF" opacity="0.9">
    <circle cx="20" cy="180" r="4"/>
    <circle cx="380" cy="210" r="4"/>
    <circle cx="760" cy="200" r="4"/>
    <circle cx="1180" cy="180" r="4"/>
    <circle cx="60" cy="420" r="4"/>
    <circle cx="430" cy="380" r="4"/>
    <circle cx="820" cy="360" r="4"/>
    <circle cx="1180" cy="320" r="4"/>
    <circle cx="140" cy="620" r="4"/>
    <circle cx="520" cy="570" r="4"/>
    <circle cx="920" cy="560" r="4"/>
  </g>
</svg>
